<svg width="1280" height="720" viewBox="0 0 1280 720" fill="none" xmlns="http://www.w3.org/2000/svg">
<g clip-path="url(#clip0_1_2)">
<rect width="1280" height="720" fill="#3F9D5F"/>
<circle cy="720" r="362" fill="white" fill-opacity="0.85"/>
<circle cy="720" r="286" fill="#3F9D5F"/>
<circle cy="720" r="219" fill="white" fill-opacity="0.85"/>
<path d="M676.38 131.649C539.524 144.6 446.437 42.6126 417 -10L1289 -6.45877V720H1191.61C890.04 681.552 940.806 528.267 1003.88 456.431C1040.72 406.011 1107.33 284.529 1079.07 201.968C1043.75 98.7665 847.449 115.461 676.38 131.649Z" fill="white" fill-opacity="0.85"/>
<path d="M580 161H593.652C595.831 161 597.753 162.427 598.387 164.513L619.76 234.901C620.393 236.987 622.316 238.414 624.494 238.414H672.649C674.913 238.414 676.889 236.875 677.446 234.678L686.068 200.656C686.624 198.459 688.6 196.92 690.865 196.92H699.386" stroke="white" stroke-width="3.75648" stroke-linecap="round"/>
<path d="M650.593 180.743C649.869 180.017 648.694 180.017 647.969 180.743L636.159 192.567C635.434 193.292 635.434 194.469 636.159 195.194C636.884 195.92 638.059 195.92 638.783 195.194L649.281 184.684L659.779 195.194C660.504 195.92 661.678 195.92 662.403 195.194C663.128 194.469 663.128 193.292 662.403 192.567L650.593 180.743ZM651.137 216.738V182.057H647.425V216.738H651.137Z" fill="white"/>
<path d="M636.291 258.851C639.366 258.851 641.858 256.356 641.858 253.277C641.858 250.199 639.366 247.704 636.291 247.704C633.216 247.704 630.724 250.199 630.724 253.277C630.724 256.356 633.216 258.851 636.291 258.851Z" stroke="white" stroke-width="3.00518"/>
<path d="M663.508 258.851C666.583 258.851 669.076 256.356 669.076 253.277C669.076 250.199 666.583 247.704 663.508 247.704C660.434 247.704 657.941 250.199 657.941 253.277C657.941 256.356 660.434 258.851 663.508 258.851Z" stroke="white" stroke-width="3.00518"/>
</g>
<defs>
<clipPath id="clip0_1_2">
<rect width="1280" height="720" fill="white"/>
</clipPath>
</defs>
</svg>
